<svg width="15" height="15" viewBox="0 0 15 15" fill="none" xmlns="http://www.w3.org/2000/svg">
<path d="M7.5 11.25C7.7125 11.25 7.89075 11.178 8.03475 11.034C8.17825 10.8905 8.25 10.7125 8.25 10.5V8.25H10.5187C10.7312 8.25 10.9062 8.178 11.0438 8.034C11.1813 7.8905 11.25 7.7125 11.25 7.5C11.25 7.2875 11.178 7.10925 11.034 6.96525C10.8905 6.82175 10.7125 6.75 10.5 6.75H8.25V4.48125C8.25 4.26875 8.17825 4.09375 8.03475 3.95625C7.89075 3.81875 7.7125 3.75 7.5 3.75C7.2875 3.75 7.1095 3.82175 6.966 3.96525C6.822 4.10925 6.75 4.2875 6.75 4.5V6.75H4.48125C4.26875 6.75 4.09375 6.82175 3.95625 6.96525C3.81875 7.10925 3.75 7.2875 3.75 7.5C3.75 7.7125 3.82175 7.8905 3.96525 8.034C4.10925 8.178 4.2875 8.25 4.5 8.25H6.75V10.5187C6.75 10.7312 6.822 10.9062 6.966 11.0438C7.1095 11.1813 7.2875 11.25 7.5 11.25ZM7.5 15C6.4625 15 5.4875 14.803 4.575 14.409C3.6625 14.0155 2.86875 13.4813 2.19375 12.8063C1.51875 12.1313 0.9845 11.3375 0.591 10.425C0.197 9.5125 0 8.5375 0 7.5C0 6.4625 0.197 5.4875 0.591 4.575C0.9845 3.6625 1.51875 2.86875 2.19375 2.19375C2.86875 1.51875 3.6625 0.98425 4.575 0.59025C5.4875 0.19675 6.4625 0 7.5 0C8.5375 0 9.5125 0.19675 10.425 0.59025C11.3375 0.98425 12.1313 1.51875 12.8063 2.19375C13.4813 2.86875 14.0155 3.6625 14.409 4.575C14.803 5.4875 15 6.4625 15 7.5C15 8.5375 14.803 9.5125 14.409 10.425C14.0155 11.3375 13.4813 12.1313 12.8063 12.8063C12.1313 13.4813 11.3375 14.0155 10.425 14.409C9.5125 14.803 8.5375 15 7.5 15ZM7.5 13.5C9.1625 13.5 10.5782 12.9158 11.7472 11.7472C12.9158 10.5782 13.5 9.1625 13.5 7.5C13.5 5.8375 12.9158 4.42175 11.7472 3.25275C10.5782 2.08425 9.1625 1.5 7.5 1.5C5.8375 1.5 4.422 2.08425 3.2535 3.25275C2.0845 4.42175 1.5 5.8375 1.5 7.5C1.5 9.1625 2.0845 10.5782 3.2535 11.7472C4.422 12.9158 5.8375 13.5 7.5 13.5Z" fill="#54B848"/>
</svg>
